<?xml version="1.0" encoding="utf-8"?>
<!-- Generator: Adobe Illustrator 24.3.0, SVG Export Plug-In . SVG Version: 6.00 Build 0)  -->
<svg version="1.1" id="outputsvg" xmlns="http://www.w3.org/2000/svg" xmlns:xlink="http://www.w3.org/1999/xlink" x="0px" y="0px"
	 viewBox="0 0 560 216" style="enable-background:new 0 0 560 216;" xml:space="preserve">
<style type="text/css">
	.st0{fill:#0B0C0B;}
	.st1{fill:#FECF07;}
</style>
<g id="l7BMVNGaePttmwJcBQ8AkMy">
	<g>
		<path id="p1H8KW2kIk" class="st0" d="M352,214.3c0.1-2.3,18.9-89.5,19.4-90c1.7-1.7,1.8,1.5,0.4,8.2c-0.8,4.1-1.1,7.5-0.7,7.5
			c0.5,0,0.9-0.4,0.9-0.9c0-2.2,9.9-11.6,14.5-13.7c6.4-3,16.1-3.2,22.1-0.5c14,6.4,17.6,27.9,7.9,47.6c-3.8,7.9-9.7,14-17,17.6
			c-5.8,2.8-7.1,3.1-14.2,2.8c-11.8-0.6-19.3-5.6-21-14.2c-0.3-1.6-0.9-2.5-1.3-2c-0.4,0.4-2.4,9.2-4.5,19.6
			c-2.7,13-4.2,18.7-5.2,18.7C352.6,215,352,214.7,352,214.3z M394.8,189.5c7.5-2.3,15.2-9.7,19.9-19.3c3.7-7.5,3.8-7.8,3.8-19.1
			c0-10.9-0.2-11.9-2.8-16.4c-3.8-6.4-9-9.1-17.8-9c-14.7,0.1-25.9,11.3-31,31.1c-2.3,9.1-2.4,14.2-0.4,20.9
			c1.7,5.6,6.6,10.9,11.3,11.9c1.5,0.3,3.2,0.7,3.7,0.9C384,191.3,390.1,190.9,394.8,189.5z"/>
		<path id="pbBg9xyM2" class="st0" d="M183.8,192.1c-4.7-1.6-8.5-4.9-10.2-9.1c-3.9-9.8,0.1-20.3,9.8-25.2c3.3-1.7,7.4-2.3,20.6-3.3
			c17.9-1.2,20-1.9,22.5-7.1c3.3-7.1,1.1-16.4-4.8-19.9c-4.8-2.9-18.7-2.7-24.3,0.2c-5.1,2.7-9.8,8-11.4,12.7c-1.2,3.6-3,4.9-3,2.1
			s2.7-8.1,5.9-11.8c8.6-9.8,31.6-10.5,38.9-1.3c4,5.1,3.8,9.3-1.7,33.3c-2.8,12.1-5.1,22.5-5.1,23.1c0,2.4,3.2,4.3,6.1,3.7
			c2.2-0.5,2.9-0.3,2.9,0.9c0,1.2-1,1.6-3.8,1.6c-5.1,0-7.2-2.4-7.2-8c0-4.3,0-4.3-3.7-0.3c-5.8,6.2-11.4,8.6-20.8,8.9
			C190.1,192.8,185.3,192.6,183.8,192.1z M205.2,187.8c5.6-2.4,12.2-9.2,14.9-15.2c2.1-4.7,5.3-17.6,4.5-18.3
			c-0.2-0.3-1.4,0.1-2.6,0.7c-1.3,0.7-8.5,1.6-16.2,2.1c-17.2,1.1-21,2-26.1,6.8c-3.9,3.6-4.1,4.2-4.5,10.5
			c-0.5,7.3,0.7,10.2,5.4,13.3C186.3,191.4,196.7,191.4,205.2,187.8z"/>
		<path id="phsjQzP72" class="st0" d="M303.4,190.6c-8.8-4.1-13.4-12.5-13.4-24.5c0-18,9-34.5,22.3-40.7c6.3-2.9,17.6-3.3,23.5-0.8
			c4.7,1.9,9.8,6.8,12.5,11.9c2.6,5,3.4,17.2,1.7,24.7c-3.2,13.8-13.2,26.6-23.6,30.2C319.3,193.8,309.6,193.5,303.4,190.6z
			 M324.7,189.5c15-4.5,26.3-26.3,23.3-45.1c-1.9-11.9-10.4-18.8-23-18.8c-18.9,0-32,16.7-32,40.9c0,6.7,0.4,9,2.6,13.3
			C300.4,189.5,311.9,193.3,324.7,189.5z"/>
		<path id="pVVlvXPni" class="st0" d="M442.4,190.7c-9.1-4.4-13.4-12.8-13.4-26.1c0-13.8,5-25.8,14-33.9c6.1-5.5,12.2-7.7,21-7.7
			c11.6,0,19.6,5.7,23.1,16.5c1.4,4.5,1.6,17.2,0.2,18.6c-0.6,0.6-12.4,0.8-28.1,0.7c-27.1-0.3-27.1-0.3-27.7,3.2
			c-0.7,4.3,0.9,13.9,2.9,17.8c5.5,10.6,20.7,14,34.2,7.6c4.5-2.1,10.1-8.8,11.6-13.6c0.6-2.1,1.7-3.8,2.5-3.8
			c1.8,0,1.6,1.4-0.8,6.3c-3.6,6.9-6.6,10.2-12.1,13.2c-4.4,2.4-6.7,3-13.8,3.3C448.6,193.1,446.8,192.8,442.4,190.7z M485.6,153.4
			c1-4.1-0.4-12.4-2.9-17.4c-1.6-3-3.9-5.4-7.1-7.5c-4.3-2.6-5.7-2.9-12-2.9c-8.5,0.1-15.1,2.9-20.8,8.7c-4.3,4.4-8.6,12.6-9.5,18
			c-0.6,3.7-0.6,3.7,25.6,3.7C485,156,485,156,485.6,153.4z"/>
		<path id="pVBwC4lka" class="st0" d="M508.4,190.7c-9.1-4.4-13.4-12.6-13.4-25.6c0-13.2,3.7-23.5,11.3-31.8
			c6.5-7.1,11.6-9.6,20.8-10.1c10.1-0.6,15.4,1.3,20.7,7.4c4.9,5.4,6.4,10.7,6,20.4c-0.3,7.5-0.3,7.5-28.1,7.5
			c-32,0-29.6-0.9-28.2,10.8c0.9,8.5,4.7,15.1,10.4,18.5c4,2.4,5.6,2.7,12.6,2.6c6.1-0.1,9.1-0.6,12.8-2.4c5.6-2.7,10.9-8.4,12.7-14
			c0.7-2.2,2-4,2.7-4c2.8,0-1.7,9.6-6.8,14.8c-5.5,5.6-10.3,7.5-19.9,7.9C514.6,193.1,512.8,192.8,508.4,190.7z M551.6,152.4
			c0.8-4.6-1-13.7-3.7-18c-1.1-1.9-4.1-4.6-6.6-6.1c-3.8-2.2-5.7-2.6-11.7-2.6c-15.8,0-25,8.4-31,28.1c-0.7,2.2-0.7,2.2,25.8,2.2
			C550.9,156,550.9,156,551.6,152.4z"/>
		<path id="pcUolLvcj" class="st0" d="M236,190.2c0-2.7,18.6-91.1,19.3-91.8c2.5-2.6,1.2,5.9-7.4,46.6c-5.4,25.6-9.9,46.6-9.9,46.8
			c0,0.1-0.4,0.2-1,0.2C236.5,192,236,191.2,236,190.2z"/>
		<path id="p1CAiMAkqw" class="st0" d="M253,190.3c0-1.3,16.4-80.9,18.5-90c0.3-1.3,1.2-2.3,2.1-2.3c1,0,1.3,0.6,1,1.8
			c-0.3,0.9-4.6,21.3-9.6,45.2s-9.3,44.3-9.6,45.3C254.7,192.5,253,192.5,253,190.3z"/>
		<path id="pyKlw4eby" class="st0" d="M270,190.3c0.1-4.7,13.8-65.7,14.8-66.1c1.9-0.6,1.6,1.5-5.3,33.7
			c-7.4,34.6-7.3,34.1-8.6,34.1C270.4,192,270,191.2,270,190.3z"/>
		<path id="pmf17Rvlw" class="st0" d="M149.3,134.6c0.3-0.8,2.4-6.7,4.7-13.2c2.3-6.6,4.9-13.2,5.7-14.7c0.8-1.6,1.2-3.1,0.9-3.4
			c-0.8-0.9-7.6,1.8-7.3,2.9c0.3,1.4-8.5,3.8-13.9,3.8c-4.7,0-20.1-2.7-22.3-4c-1.1-0.6-0.9-1,0.9-2c2.3-1.3,14.3-0.9,18.9,0.5
			c1.6,0.5,2.2,0.5,1.8-0.2c-0.4-0.6-3.2-1.8-6.4-2.7c-16.6-5-18.4-5.9-16.7-7.6c0.6-0.6,3.6-1.4,6.6-1.7c5.1-0.5,6-0.2,15.3,4.7
			c9,4.7,10.4,5.1,15,4.7c2.7-0.3,6.3-0.8,7.9-1.2c4.4-1.2,4.9,1,1.5,7.5c-2.8,5.4-8.2,20-7.6,20.6c0.2,0.2,3.3-1.9,6.9-4.6
			c8-6,12.8-12.8,12.8-18.1c0-4.3,1.4-6,6.2-7.9c1.8-0.7,3.5-1.5,3.7-1.6c0.2-0.2-1-1.4-2.5-2.8c-3.4-2.9-10.1-3.6-11-1.1
			c-0.4,0.8-1,1.2-1.5,0.9c-1.5-0.9,0.9-4.1,3.5-4.8c2.8-0.7,5.6,0.4,10.3,3.8c1.7,1.3,6.4,3.3,10.5,4.5c9.6,3,13,4.3,12.4,4.8
			c-0.2,0.2-3.1-0.3-6.4-1.1c-13.6-3.6-22.5-1.6-22.8,5c-0.3,6.6-5.9,13.5-20.6,25.7C150,136.2,148.4,137,149.3,134.6z"/>
		<path id="p4wTTlYWz" class="st0" d="M124.8,118.3c-3.1-0.8-1.9-3.3,2.5-5.3c3-1.4,6.5-2,12.5-2c4.6,0,9.3-0.5,10.4-1.1
			c1.6-0.8,1.9-0.8,1.3,0.1c-0.4,0.7-3.5,2.5-6.9,4c-5.4,2.4-7.8,3.1-16.1,4.5C127.4,118.7,125.7,118.6,124.8,118.3z"/>
		<path id="pM3y6B4cy" class="st0" d="M456.1,114.3c0.1-1.3,19.7-17.8,21.5-18.1c2.6-0.6,1.1,0.9-9.5,10.2
			C459.2,114.2,455.9,116.3,456.1,114.3z"/>
		<path id="pmZ98AsV6" class="st0" d="M286.4,110.3c0.2-1,0.7-3.4,1.1-5.3c1.1-5.9,1.6-7,3.2-7c0.8,0,1.3,0.6,1,1.3
			c-0.2,0.7-1,3.8-1.7,7c-0.8,3.9-1.6,5.7-2.6,5.7S286,111.4,286.4,110.3z"/>
		<path id="poS9rAuhF" class="st0" d="M147.1,97.3c-4.2-2.1-8.5-7.9-10.6-14.4c-1.7-5.1-1.2-9.4,1-8.6c0.9,0.4,1.4-1.4,1.7-6.9
			c0.5-7.8,2.1-11.2,3.8-8.4c0.5,0.8,1,3.1,1,5c0,9.4,5.5,22.2,12.8,30.3c3.5,3.7,1.7,3.4-4.5-0.8c-5.6-3.7-8.3-7-11.3-13.7
			c-1.3-2.8-2-3.6-2-2.2c0,3.7,5.2,12.4,9.6,16.2C154.9,99,154.2,100.8,147.1,97.3z"/>
		<path id="p4o9W4CTr" class="st0" d="M159.4,94c-4-2.6-7.8-8.1-9.9-14.5c-1.7-5.1-1.5-9.7,0.6-15.2c1-2.7,1.1-2.7,2.5-0.9
			c0.7,1.1,1.1,2.9,0.8,4.2c-1.5,5.9,3,20.8,7.9,26.2C163.8,96.5,163.4,96.6,159.4,94z"/>
	</g>
</g>
<g id="l21lW3wXKsw6BBTHduE3D9r">
	<g>
		<path id="pwK6RbmgQ" class="st1" d="M115.4,192.9C40,189.1,0,166.1,0,126.3C0,96.8,22.3,56.1,63.4,10.7C72.1,1.1,73.4,0,76.5,0
			c3.4,0,3.4,0-2.2,8.7c-3,4.9-8.6,15.1-12.3,22.8C50.4,55.3,46,71.7,46,91.4c0,16.8,3.2,28.9,11.1,42.4
			c4.6,7.7,19.7,22.7,29.3,29.2c16.5,11,41.5,21.1,65.7,26.4c6.4,1.4,12.7,2.7,14,2.8c4.1,0.3-18.1,1.6-26.6,1.5
			C135.1,193.7,124.3,193.3,115.4,192.9z"/>
		<path id="p1GBnYFJ2m" class="st1" d="M173.6,94.5c-1.8-1.3-1.8-1.5-0.2-2.1c2.1-0.8,4.4,1.2,3.1,2.5
			C175.9,95.5,174.8,95.3,173.6,94.5z"/>
	</g>
</g>
</svg>
